<svg width="1366" height="106" viewBox="0 0 1366 106" fill="none" xmlns="http://www.w3.org/2000/svg">
<path fill-rule="evenodd" clip-rule="evenodd" d="M-91.9859 444.983V446.852C-18.0148 463.324 72.181 462.887 182.157 435.569C356.792 392.189 531.428 384.126 684.474 409.468C804.883 429.407 911.925 470.029 995.073 530.4C1027.51 553.947 1056.3 580.499 1080.84 610H1083.14C1058.3 579.935 1029.08 552.906 996.121 528.978C912.746 468.442 805.44 427.718 684.763 407.733C531.484 382.352 356.595 390.425 181.723 433.862C71.8636 461.151 -18.1806 461.518 -91.9929 444.987M-91.9929 419.933V421.796C-16.1067 440.722 77.4153 441.611 192.64 412.988C367.275 369.608 541.911 361.545 694.956 386.884C815.366 406.823 922.407 447.445 1005.56 507.815C1046.06 537.221 1080.89 571.321 1108.84 609.996H1111.03C1082.84 570.739 1047.62 536.17 1006.6 506.39C923.229 445.854 815.923 405.13 695.246 385.145C541.967 359.764 367.078 367.838 192.206 411.274C77.0943 439.865 -16.283 438.92 -91.9965 419.926L-91.9929 419.933ZM-91.9929 394.531V396.421C-14.2867 417.976 82.519 420.367 203.129 390.408C377.765 347.027 552.4 338.964 705.446 364.303C825.855 384.242 932.897 424.864 1016.05 485.235C1064.26 520.238 1104.44 561.89 1134.54 610H1136.63C1106.34 561.301 1065.8 519.176 1017.09 483.813C933.719 423.277 826.413 382.553 705.739 362.568C552.46 337.187 377.571 345.26 202.699 388.697C82.1945 418.628 -14.4595 416.159 -91.9929 394.527V394.531ZM-91.9929 368.913V370.829C-12.5689 395.155 87.5417 399.141 213.616 367.823C388.251 324.443 562.886 316.38 715.932 341.719C836.342 361.658 943.383 402.28 1026.53 462.65C1082.13 503.018 1127.06 552.229 1158.15 609.996H1160.17C1128.93 551.637 1083.66 501.95 1027.58 461.229C944.205 400.693 836.899 359.969 716.221 339.984C562.943 314.603 388.053 322.676 213.182 366.113C87.1996 397.406 -12.7524 393.325 -92 368.91L-91.9929 368.913ZM-91.9929 342.943V344.855C-10.9465 372.137 92.4091 377.953 224.105 345.243C398.741 301.863 573.376 293.799 726.422 319.138C846.831 339.077 953.873 379.699 1037.02 440.07C1099.73 485.602 1148.86 542.381 1179.88 609.996H1181.83C1150.7 541.775 1101.25 484.522 1038.07 438.648C954.695 378.112 847.389 337.388 726.711 317.403C573.433 292.022 398.543 300.095 223.671 343.532C92.067 376.222 -11.1405 370.314 -91.9965 342.943H-91.9929ZM-91.9929 316.606V318.553C-9.42627 348.957 97.1355 356.805 234.595 322.662C409.23 279.282 583.866 271.219 736.912 296.558C857.321 316.497 964.362 357.119 1047.51 417.489C1117.09 468.001 1169.94 532.357 1199.9 609.996H1201.8C1171.76 531.743 1118.6 466.915 1048.56 416.068C965.184 355.531 857.878 314.807 737.204 294.822C583.926 269.441 409.036 277.515 234.165 320.951C96.7863 355.076 -9.62379 347.112 -91.9929 316.606ZM-91.9929 289.99V291.972C-8.02953 325.657 101.745 335.684 245.081 300.078C419.717 256.698 594.356 248.635 747.401 273.973C867.811 293.912 974.852 334.534 1058 394.905C1134.21 450.238 1190.36 522.178 1218.33 609.993H1220.2C1192.16 521.557 1135.72 449.142 1059.05 393.483C975.677 332.947 868.371 292.223 747.698 272.238C594.419 246.857 419.53 254.93 244.658 298.367C101.382 333.956 -8.22705 323.794 -91.9894 289.987L-91.9929 289.99ZM-91.9929 263.05V265.032C-6.74918 302.176 106.197 314.599 255.571 277.497C430.206 234.117 604.842 226.054 757.888 251.396C878.297 271.335 985.338 311.957 1068.49 372.328C1151.13 432.331 1210.19 511.865 1235.3 609.996H1237.13C1211.97 511.24 1152.63 431.234 1069.54 370.906C986.164 310.37 878.858 269.646 758.18 249.661C604.902 224.28 430.012 232.353 255.141 275.79C105.83 312.878 -6.96786 300.321 -91.9965 263.05H-91.9929ZM-91.9929 235.623V237.64C-5.58875 278.435 110.454 293.567 266.061 254.916C440.696 211.536 615.331 203.473 768.377 228.812C888.787 248.751 995.828 289.373 1078.98 349.743C1162.08 410.075 1221.33 490.148 1246.2 589.021C1247.94 595.92 1249.5 602.91 1250.9 609.993H1252.71C1251.28 602.766 1249.69 595.63 1247.92 588.594C1222.94 489.294 1163.45 408.89 1080.02 348.318C996.65 287.782 889.344 247.058 768.667 227.073C615.388 201.692 440.498 209.766 265.627 253.202C110.077 291.853 -5.80391 276.566 -91.9859 235.626L-91.9929 235.623ZM-91.9929 207.847V209.907C-4.56236 254.528 114.552 272.573 276.547 232.336C451.182 188.955 625.818 180.892 778.863 206.231C899.273 226.17 1006.31 266.792 1089.46 327.163C1172.56 387.494 1231.81 467.567 1256.69 566.44C1260.24 580.573 1263.1 595.091 1265.22 609.993H1267.01C1264.88 594.946 1262 580.284 1258.41 566.013C1233.43 466.714 1173.94 386.306 1090.51 325.738C1007.14 265.201 899.83 224.477 779.156 204.492C625.878 179.111 450.988 187.185 276.116 230.621C114.154 270.863 -4.78809 252.631 -91.9859 207.85L-91.9929 207.847ZM-91.9929 179.686V181.792C-3.67704 230.41 118.482 251.622 287.036 209.755C461.672 166.375 636.307 158.312 789.357 183.654C909.762 203.593 1016.81 244.215 1099.96 304.585C1183.05 364.917 1242.31 444.99 1267.18 543.863C1272.51 565.047 1276.26 587.095 1278.33 609.996H1280.11C1278.04 586.947 1274.27 564.757 1268.9 543.436C1243.92 444.137 1184.43 363.728 1101.01 303.16C1017.63 242.624 910.327 201.9 789.653 181.915C636.374 156.534 461.485 164.608 286.613 208.044C118.062 249.915 -3.91336 228.484 -91.9859 179.69L-91.9929 179.686ZM-91.9929 151.109V153.264C-2.93987 206.059 122.217 230.717 297.526 187.171C472.161 143.79 646.797 135.727 799.843 161.066C920.252 181.005 1027.29 221.627 1110.44 281.998C1193.54 342.329 1252.79 422.402 1277.67 521.275C1284.73 549.337 1289.02 578.915 1290.3 609.989H1292.08C1290.79 578.764 1286.48 549.044 1279.38 520.848C1254.4 421.549 1194.91 341.144 1111.49 280.573C1028.12 220.037 920.809 179.312 800.132 159.328C646.853 133.946 471.964 142.02 297.092 185.457C121.773 229.02 -3.19382 204.104 -91.9859 151.113L-91.9929 151.109ZM-91.9929 122.046V124.201C-2.35789 181.379 125.695 209.875 308.012 164.59C482.648 121.21 657.283 113.147 810.329 138.486C930.738 158.425 1037.78 199.047 1120.93 259.417C1204.03 319.749 1263.28 399.822 1288.15 498.694C1296.9 533.475 1301.4 570.588 1301.2 609.989H1302.97C1303.18 570.44 1298.66 533.183 1289.87 498.267C1264.89 398.968 1205.4 318.56 1121.98 257.992C1038.61 197.456 931.299 156.732 810.622 136.747C657.343 111.366 482.454 119.439 307.582 162.876C125.25 208.178 -2.63301 179.432 -91.9859 122.053L-91.9929 122.046ZM-91.9929 92.4495V94.654C-1.95228 156.404 128.936 189.093 318.502 142.006C493.137 98.6255 667.773 90.5625 820.819 115.901C941.228 135.84 1048.27 176.462 1131.42 236.833C1214.51 297.164 1273.77 377.237 1298.64 476.11C1309.05 517.462 1313.44 562.116 1311.06 609.986H1312.84C1315.22 561.967 1310.8 517.176 1300.36 475.683C1275.38 376.384 1215.89 295.976 1132.47 235.408C1049.09 174.872 941.785 134.147 821.111 114.163C667.833 88.7813 492.943 96.8549 318.072 140.292C128.467 187.407 -2.23798 154.425 -91.9859 92.4566L-91.9929 92.4495ZM-91.9929 62.3455V64.6099C-1.71948 131.114 131.927 168.378 328.992 119.429C503.627 76.0484 678.263 67.9854 831.308 93.3243C951.718 113.263 1058.76 153.885 1141.91 214.256C1225.01 274.587 1284.26 354.66 1309.14 453.533C1321.16 501.322 1325.16 553.509 1319.95 609.989H1321.73C1326.93 553.368 1322.92 501.033 1310.86 453.106C1285.87 353.807 1226.39 273.402 1142.96 212.831C1059.59 152.294 952.282 111.57 831.608 91.5854C678.33 66.2041 503.44 74.2778 328.568 117.714C131.423 166.696 -2.02634 129.093 -91.9859 62.349L-91.9929 62.3455ZM-91.9929 31.6947V34.0226C-1.69127 105.465 134.632 147.73 339.478 96.8514C514.113 53.4712 688.749 45.4082 841.795 70.7471C962.204 90.686 1069.25 131.308 1152.39 191.678C1235.49 252.01 1294.75 332.083 1319.62 430.956C1333.23 485.048 1336.56 544.783 1327.89 609.993H1329.67C1338.34 544.642 1334.99 484.762 1321.34 430.529C1296.36 331.229 1236.87 250.821 1153.45 190.253C1070.07 129.717 962.765 88.993 842.087 69.0082C688.809 43.627 513.919 51.7006 339.048 95.1372C134.096 146.055 -2.01929 103.398 -91.9859 31.6982L-91.9929 31.6947ZM-91.9929 0.451317V2.84271C-1.87115 79.3992 137.031 127.164 349.967 74.2707C524.603 30.8905 699.238 22.8275 852.284 48.1664C972.693 68.1053 1079.73 108.727 1162.88 169.098C1245.98 229.429 1305.24 309.502 1330.11 408.375C1345.1 467.959 1347.62 534.389 1335.36 607.446C1335.22 608.303 1335.1 609.143 1334.96 609.996H1336.76C1336.88 609.242 1336.99 608.497 1337.11 607.739C1349.41 534.431 1346.88 467.761 1331.83 407.952C1306.85 308.652 1247.36 228.244 1163.93 167.676C1080.56 107.14 973.254 66.4158 852.577 46.431C699.298 21.0498 524.409 29.1234 349.537 72.56C136.456 125.492 -2.22386 77.2899 -91.9859 0.454842L-91.9929 0.451317ZM-91.9929 -31.4304V-28.9685C-2.2803 52.8822 139.077 106.674 360.457 51.6865C535.093 8.30624 709.728 0.243217 862.774 25.5857C983.183 45.5246 1090.22 86.1465 1173.37 146.517C1256.47 206.849 1315.72 286.922 1340.6 385.794C1355.59 445.378 1358.1 511.808 1345.85 584.866C1344.41 593.472 1343.26 601.845 1342.41 609.996H1344.19C1345.04 601.94 1346.17 593.662 1347.6 585.158C1359.9 511.85 1357.37 445.181 1342.32 385.371C1317.34 286.068 1257.85 205.663 1174.42 145.096C1091.05 84.5593 983.74 43.8351 863.067 23.8503C709.788 -1.53093 534.899 6.54267 360.027 49.9793C138.463 105.02 -2.66476 50.7165 -91.9859 -31.4269L-91.9929 -31.4304ZM-91.9859 -64C-3.35607 23.6211 140.078 84.6405 370.524 27.4022C545.395 -16.0345 720.285 -24.1081 873.563 1.27314C994.241 21.2579 1101.54 61.9822 1184.92 122.518C1268.34 183.086 1327.83 263.491 1352.81 362.794C1367.86 422.603 1370.39 489.277 1358.1 562.581C1355.3 579.247 1353.64 595.038 1353.03 610H1351.25C1351.86 594.943 1353.54 579.056 1356.35 562.288C1368.6 489.231 1366.09 422.801 1351.1 363.217C1326.22 264.341 1266.97 184.271 1183.87 123.94C1100.72 63.5694 993.676 22.9474 873.267 3.00848C720.221 -22.3304 545.586 -14.2674 370.95 29.1128C140.745 86.2912 -2.93987 25.8502 -91.9859 -61.464V-64Z" fill="#EF3097"/>
</svg>
